<svg id="visual" viewBox="0 0 900 600" width="900" height="600" xmlns="http://www.w3.org/2000/svg" xmlns:xlink="http://www.w3.org/1999/xlink" version="1.1"><rect x="0" y="0" width="900" height="600" fill="#ffffff"></rect><path d="M0 432L21.5 421.3C43 410.7 86 389.3 128.8 376.5C171.7 363.7 214.3 359.3 257.2 369.8C300 380.3 343 405.7 385.8 409.3C428.7 413 471.3 395 514.2 389.7C557 384.3 600 391.7 642.8 399.7C685.7 407.7 728.3 416.3 771.2 417.8C814 419.3 857 413.7 878.5 410.8L900 408L900 601L878.5 601C857 601 814 601 771.2 601C728.3 601 685.7 601 642.8 601C600 601 557 601 514.2 601C471.3 601 428.7 601 385.8 601C343 601 300 601 257.2 601C214.3 601 171.7 601 128.8 601C86 601 43 601 21.5 601L0 601Z" fill="#8c8c8c"></path><path d="M0 430L21.5 424.7C43 419.3 86 408.7 128.8 408C171.7 407.3 214.3 416.7 257.2 426.3C300 436 343 446 385.8 448.5C428.7 451 471.3 446 514.2 450C557 454 600 467 642.8 470.5C685.7 474 728.3 468 771.2 464.3C814 460.7 857 459.3 878.5 458.7L900 458L900 601L878.5 601C857 601 814 601 771.2 601C728.3 601 685.7 601 642.8 601C600 601 557 601 514.2 601C471.3 601 428.7 601 385.8 601C343 601 300 601 257.2 601C214.3 601 171.7 601 128.8 601C86 601 43 601 21.5 601L0 601Z" fill="#a4a4a4"></path><path d="M0 461L21.5 466.5C43 472 86 483 128.8 480.7C171.7 478.3 214.3 462.7 257.2 464.3C300 466 343 485 385.8 484.7C428.7 484.3 471.3 464.7 514.2 459.8C557 455 600 465 642.8 473.7C685.7 482.3 728.3 489.7 771.2 485.8C814 482 857 467 878.5 459.5L900 452L900 601L878.5 601C857 601 814 601 771.2 601C728.3 601 685.7 601 642.8 601C600 601 557 601 514.2 601C471.3 601 428.7 601 385.8 601C343 601 300 601 257.2 601C214.3 601 171.7 601 128.8 601C86 601 43 601 21.5 601L0 601Z" fill="#bcbcbc"></path><path d="M0 486L21.5 488.7C43 491.3 86 496.7 128.8 496C171.7 495.3 214.3 488.7 257.2 492.2C300 495.7 343 509.3 385.8 517.3C428.7 525.3 471.3 527.7 514.2 523.2C557 518.7 600 507.3 642.8 505C685.7 502.7 728.3 509.3 771.2 511.5C814 513.7 857 511.3 878.5 510.2L900 509L900 601L878.5 601C857 601 814 601 771.2 601C728.3 601 685.7 601 642.8 601C600 601 557 601 514.2 601C471.3 601 428.7 601 385.8 601C343 601 300 601 257.2 601C214.3 601 171.7 601 128.8 601C86 601 43 601 21.5 601L0 601Z" fill="#d5d5d5"></path><path d="M0 573L21.5 569.2C43 565.3 86 557.7 128.8 554.3C171.7 551 214.3 552 257.2 550.8C300 549.7 343 546.3 385.8 547.2C428.7 548 471.3 553 514.2 556.8C557 560.7 600 563.3 642.8 563.5C685.7 563.7 728.3 561.3 771.2 560.5C814 559.7 857 560.3 878.5 560.7L900 561L900 601L878.5 601C857 601 814 601 771.2 601C728.3 601 685.7 601 642.8 601C600 601 557 601 514.2 601C471.3 601 428.7 601 385.8 601C343 601 300 601 257.2 601C214.3 601 171.7 601 128.8 601C86 601 43 601 21.5 601L0 601Z" fill="#efefef"></path></svg>